<?xml version="1.0" encoding="utf-8"?>
<!-- Generator: Adobe Illustrator 19.0.0, SVG Export Plug-In . SVG Version: 6.00 Build 0)  -->
<svg version="1.1" id="Layer_1" xmlns="http://www.w3.org/2000/svg" xmlns:xlink="http://www.w3.org/1999/xlink" x="0px" y="0px"
	 width="265.2" height="100.1" viewBox="-113 142 265.2 100.1" enable-background="new -113 142 265.2 100.1" xml:space="preserve">
<g id="Logo_x0020_icon">
	<path fill="#D6B45A" d="M13.7,142.1c0.8,0,1.4,0.6,1.4,1.4s-0.6,1.4-1.4,1.4H-4.5l-14,17.9l21.7,21.9c0.5,0.5,0.5,1.4,0,2
		c-0.5,0.5-1.4,0.5-2,0L-22.2,163l16.3-20.9H13.7L13.7,142.1z M21,206.6v-3.4v-7.6v-50.8h22.7l14,17.9L38.6,182
		c-0.5,0.5-0.5,1.4,0,2c0.5,0.5,1.4,0.5,2,0l20.8-21L45,142H18.2v57.7l-8.5-8.6c-0.5-0.5-1.4-0.5-2,0c-0.5,0.5-0.5,1.4,0,2
		C12.1,197.6,16.6,202.1,21,206.6L21,206.6z"/>
</g>
<g id="Logo_x0020_name">
	<path fill="#FFFFFF" d="M-110,233.9v7.9h-3v-24h6.9c2,0.3,3.7,1.1,5,2.4c1.6,1.6,2.4,3.4,2.4,5.6c0,2.2-0.8,4.1-2.4,5.7
		c-1.6,1.6-3.6,2.4-5.9,2.4C-107,233.9-110,233.9-110,233.9z M-110,220.4v10.9h3c1.4,0,2.6-0.5,3.7-1.6c1-1,1.6-2.3,1.6-3.9
		c0-1.5-0.5-2.8-1.6-3.9c-1-1-2.3-1.5-3.7-1.5L-110,220.4L-110,220.4z M-79,217.4c3.5,0,6.5,1.2,8.9,3.6c2.4,2.4,3.6,5.3,3.6,8.7
		c0,3.4-1.2,6.3-3.6,8.7c-2.4,2.4-5.4,3.6-8.9,3.6s-6.4-1.2-8.8-3.6c-2.4-2.4-3.6-5.3-3.6-8.7c0-3.3,1.2-6.2,3.6-8.7
		C-85.4,218.6-82.5,217.4-79,217.4z M-79,220.1c-2.5,0-4.8,0.9-6.6,2.8c-1.9,1.9-2.8,4.2-2.8,6.9c0,2.7,0.9,5,2.8,6.9
		c1.9,1.9,4.1,2.8,6.6,2.8s4.8-0.9,6.7-2.8c1.9-1.9,2.8-4.2,2.8-6.9c0-2.7-0.9-5-2.8-6.9C-74.2,221-76.4,220.1-79,220.1z
		 M-58.4,241.8v-24h3v21.4h8.6v2.6L-58.4,241.8L-58.4,241.8z M-28.4,229.2l-2.3-6.4l-2.3,6.4H-28.4L-28.4,229.2z M-29.4,217.8
		l8.7,24h-3.1l-3.6-10h-6.5l-3.7,10h-3.2l8.8-24H-29.4L-29.4,217.8z M-10.6,220.4v10.9h3c1.4,0,2.6-0.5,3.7-1.6c1-1,1.6-2.3,1.6-3.9
		c0-1.5-0.5-2.8-1.6-3.9c-1-1-2.3-1.5-3.7-1.5L-10.6,220.4L-10.6,220.4z M-7.7,233.9h-2.8v7.9h-3v-24h6.9c2,0.3,3.7,1.1,5,2.4
		c1.6,1.6,2.4,3.4,2.4,5.6c0,2.2-0.8,4.1-2.4,5.7c-1.1,1.1-2,1.7-2.8,1.9l5.4,8.3h-3.5L-7.7,233.9z M20.6,217.8v2.6H12v8.1h8.6v2.6
		H12v10.7h-3v-24H20.6L20.6,217.8z M40.1,217.4c3.5,0,6.5,1.2,8.9,3.6c2.4,2.4,3.6,5.3,3.6,8.7c0,3.4-1.2,6.3-3.6,8.7
		c-2.4,2.4-5.4,3.6-8.9,3.6c-3.5,0-6.4-1.2-8.9-3.6c-2.4-2.4-3.6-5.3-3.6-8.7c0-3.4,1.2-6.2,3.6-8.7
		C33.7,218.6,36.6,217.4,40.1,217.4L40.1,217.4z M40.1,220.1c-2.5,0-4.8,0.9-6.6,2.8c-1.9,1.9-2.8,4.2-2.8,6.9c0,2.7,0.9,5,2.8,6.9
		c1.9,1.9,4.1,2.8,6.6,2.8c2.6,0,4.8-0.9,6.7-2.8c1.9-1.9,2.8-4.2,2.8-6.9c0-2.7-0.9-5-2.8-6.9C44.9,221,42.7,220.1,40.1,220.1z
		 M63.7,220.4v10.9h3c1.4,0,2.6-0.5,3.7-1.6c1-1,1.6-2.3,1.6-3.9c0-1.5-0.5-2.8-1.6-3.9c-1-1-2.3-1.5-3.7-1.5L63.7,220.4L63.7,220.4
		z M66.5,233.9h-2.8v7.9h-3v-24h6.9c2,0.3,3.7,1.1,5,2.4c1.6,1.6,2.4,3.4,2.4,5.6c0,2.2-0.8,4.1-2.4,5.7c-1.1,1.1-2,1.7-2.8,1.9
		l5.4,8.3h-3.5L66.5,233.9z M103.6,238.5c-2.5,2.4-5.3,3.5-8.6,3.5c-3.5,0-6.5-1.2-8.9-3.6c-2.4-2.4-3.6-5.3-3.6-8.7
		c0-3.3,1.2-6.2,3.6-8.7c2.4-2.4,5.4-3.7,8.9-3.7c3.2,0,6.2,1.2,8.9,3.7l-2.1,1.9c-2.2-2-4.5-2.9-6.8-2.9c-2.5,0-4.8,0.9-6.6,2.8
		c-1.9,1.9-2.8,4.1-2.8,6.8s0.9,5,2.8,6.9s4.1,2.8,6.6,2.8c2.2,0,4.1-0.6,5.6-1.8v-7.3h3L103.6,238.5L103.6,238.5z M125.3,217.8v2.6
		h-10.1v8.1h10.1v2.6h-10.1v8.1h10.1v2.6h-13.1v-24H125.3L125.3,217.8z M139.3,217.8c4,0,7.1,1.2,9.3,3.4c2.4,2.4,3.6,5.3,3.6,8.6
		c0,3.4-1.2,6.3-3.6,8.7c-2.2,2.2-5.3,3.3-9.3,3.3h-5.1v-24H139.3z M137.2,220.5v18.7h2c3,0,5.3-0.8,7-2.5c1.9-1.9,2.8-4.2,2.8-6.9
		s-0.9-5-2.8-6.9c-1.7-1.6-4-2.4-7-2.4H137.2z"/>
</g>
</svg>
