<?xml version="1.0" encoding="utf-8"?>
<!-- Generator: Adobe Illustrator 19.0.0, SVG Export Plug-In . SVG Version: 6.00 Build 0)  -->
<svg version="1.1" id="Layer_1" xmlns="http://www.w3.org/2000/svg" xmlns:xlink="http://www.w3.org/1999/xlink" x="0px" y="0px"
	 width="154.6" height="22.2" viewBox="75 275 154.6 22.2" enable-background="new 75 275 154.6 22.2" xml:space="preserve">
<g id="Logo_x0020_icon">
	<path fill="#D6B45A" d="M81.2,276.3l-4.5,5.8l7.2,7.2c0.2,0.3,0.2,0.7,0,0.9c-0.3,0.3-0.7,0.2-0.9,0l-8-8l5.6-7.2h6.6
		c0.4,0,0.6,0.3,0.6,0.6c0,0.4-0.3,0.6-0.6,0.6C87.2,276.3,81.2,276.3,81.2,276.3z M88.6,294.1V275h9.3l5.6,7.2l-7.1,7.2
		c-0.2,0.3-0.7,0.3-0.9,0c-0.3-0.2-0.3-0.7,0-0.9l6.3-6.3l-4.5-5.8h-7.3v20.9l-0.3-0.3c-1.5-1.5-3-3-4.5-4.5c-0.3-0.3-0.2-0.7,0-0.9
		c0.3-0.3,0.7-0.2,0.9,0L88.6,294.1L88.6,294.1z"/>
</g>
<g id="Logo_x0020_name">
	<path d="M109.7,287.9v3.6h-1.4v-11h3.1c0.9,0.1,1.7,0.5,2.3,1.1c0.7,0.7,1.1,1.6,1.1,2.6c0,1-0.4,1.9-1.1,2.6
		c-0.7,0.7-1.6,1.1-2.7,1.1H109.7L109.7,287.9z M109.7,281.7v5h1.4c0.6,0,1.2-0.2,1.7-0.7c0.5-0.5,0.7-1.1,0.7-1.8
		c0-0.7-0.2-1.3-0.7-1.8c-0.5-0.5-1-0.7-1.7-0.7C111,281.7,109.7,281.7,109.7,281.7z M123.9,280.3c1.6,0,3,0.6,4.1,1.7
		c1.1,1.1,1.7,2.4,1.7,4c0,1.5-0.6,2.9-1.7,4c-1.1,1.1-2.5,1.7-4.1,1.7c-1.6,0-2.9-0.6-4.1-1.7c-1.1-1.1-1.7-2.4-1.7-4
		c0-1.5,0.6-2.9,1.7-4C120.9,280.9,122.3,280.3,123.9,280.3z M123.9,281.5c-1.2,0-2.2,0.4-3,1.3c-0.9,0.9-1.3,1.9-1.3,3.1
		c0,1.2,0.4,2.3,1.3,3.1c0.9,0.9,1.9,1.3,3,1.3c1.2,0,2.2-0.4,3-1.3c0.9-0.9,1.3-1.9,1.3-3.1c0-1.2-0.4-2.3-1.3-3.1
		C126.1,282,125,281.5,123.9,281.5z M133.3,291.5v-11h1.4v9.8h4v1.2H133.3z M147,285.7l-1.1-2.9l-1.1,2.9H147L147,285.7z
		 M146.6,280.5l4,11h-1.4l-1.7-4.6h-3l-1.7,4.6h-1.4l4-11H146.6z M155.2,281.7v5h1.4c0.6,0,1.2-0.2,1.7-0.7c0.5-0.5,0.7-1.1,0.7-1.8
		c0-0.7-0.2-1.3-0.7-1.8c-0.5-0.5-1-0.7-1.7-0.7H155.2z M156.5,287.9h-1.3v3.6h-1.4v-11h3.1c0.9,0.1,1.7,0.5,2.3,1.1
		c0.7,0.7,1.1,1.6,1.1,2.6c0,1-0.4,1.9-1.1,2.6c-0.5,0.5-0.9,0.8-1.3,0.9l2.5,3.8h-1.6L156.5,287.9L156.5,287.9z M169.4,280.5v1.2
		h-4v3.7h4v1.2h-4v4.9h-1.4v-11C164.1,280.5,169.4,280.5,169.4,280.5z M178.4,280.3c1.6,0,3,0.6,4.1,1.7c1.1,1.1,1.7,2.4,1.7,4
		c0,1.5-0.6,2.9-1.7,4c-1.1,1.1-2.5,1.7-4.1,1.7c-1.6,0-2.9-0.6-4.1-1.7c-1.1-1.1-1.7-2.4-1.7-4c0-1.5,0.6-2.9,1.7-4
		C175.4,280.9,176.8,280.3,178.4,280.3L178.4,280.3z M178.4,281.5c-1.2,0-2.2,0.4-3,1.3c-0.9,0.9-1.3,1.9-1.3,3.1
		c0,1.2,0.4,2.3,1.3,3.1c0.9,0.9,1.9,1.3,3,1.3c1.2,0,2.2-0.4,3-1.3c0.9-0.9,1.3-1.9,1.3-3.1c0-1.2-0.4-2.3-1.3-3.1
		C180.6,282,179.5,281.5,178.4,281.5z M189.2,281.7v5h1.4c0.6,0,1.2-0.2,1.7-0.7c0.5-0.5,0.7-1.1,0.7-1.8c0-0.7-0.2-1.3-0.7-1.8
		c-0.5-0.5-1-0.7-1.7-0.7H189.2z M190.4,287.9h-1.3v3.6h-1.4v-11h3.1c0.9,0.1,1.7,0.5,2.3,1.1c0.7,0.7,1.1,1.6,1.1,2.6
		c0,1-0.4,1.9-1.1,2.6c-0.5,0.5-0.9,0.8-1.3,0.9l2.5,3.8h-1.6L190.4,287.9z M207.4,290c-1.1,1.1-2.4,1.6-3.9,1.6
		c-1.6,0-2.9-0.6-4.1-1.7c-1.1-1.1-1.7-2.4-1.7-4c0-1.5,0.5-2.8,1.7-4c1.1-1.1,2.5-1.7,4.1-1.7c1.5,0,2.9,0.6,4.1,1.7l-1,0.9
		c-1-0.9-2.1-1.3-3.1-1.3c-1.2,0-2.2,0.4-3,1.3s-1.3,1.9-1.3,3.1c0,1.2,0.4,2.3,1.3,3.1c0.9,0.9,1.9,1.3,3,1.3c1,0,1.9-0.3,2.6-0.8
		v-3.3h1.4V290z M217.3,280.5v1.2h-4.6v3.7h4.6v1.2h-4.6v3.7h4.6v1.2h-6v-11H217.3L217.3,280.5z M223.7,280.5c1.8,0,3.3,0.5,4.3,1.6
		c1.1,1.1,1.6,2.4,1.6,3.9c0,1.5-0.6,2.9-1.7,4c-1,1-2.4,1.5-4.2,1.5h-2.3v-11H223.7z M222.8,281.7v8.6h0.9c1.4,0,2.4-0.4,3.2-1.1
		c0.9-0.9,1.3-1.9,1.3-3.2c0-1.2-0.4-2.3-1.3-3.2c-0.8-0.7-1.9-1.1-3.2-1.1C223.7,281.7,222.8,281.7,222.8,281.7z"/>
</g>
</svg>
