<?xml version="1.0" encoding="utf-8"?>
<!-- Generator: Adobe Illustrator 19.0.0, SVG Export Plug-In . SVG Version: 6.00 Build 0)  -->
<svg version="1.1" id="Layer_1" xmlns="http://www.w3.org/2000/svg" xmlns:xlink="http://www.w3.org/1999/xlink" x="0px" y="0px"
	 width="179.3" height="170" viewBox="-113 142 179.3 170" style="enable-background:new -113 142 179.3 170;" xml:space="preserve">
<style type="text/css">
	.st0{fill:#D6B45A;}
	.st1{fill:#FFFFFF;}
</style>
<g id="Logo_x0020_icon">
	<path class="st0" d="M-33.8,142.1c1.3,0,2.4,1,2.4,2.4s-1,2.4-2.4,2.4h-30.9l-23.8,30.4l36.9,37.2c0.9,0.9,0.9,2.4,0,3.3
		c-0.9,0.9-2.4,0.9-3.3,0l-39.8-40.2l27.8-35.5H-33.8L-33.8,142.1z M-21.4,251.7v-5.8v-12.8v-86.3h38.6l23.8,30.4L8.5,209.9
		c-0.9,0.9-0.9,2.4,0,3.3c0.9,0.9,2.4,0.9,3.3,0l35.4-35.7L19.4,142h-45.6v98.1l-14.5-14.6c-0.9-0.9-2.4-0.9-3.3,0
		c-0.9,0.9-0.9,2.4,0,3.3C-36.5,236.5-28.9,244.1-21.4,251.7L-21.4,251.7z"/>
</g>
<g>
	<path class="st1" d="M-97.3,275.7V312h-5.1v-36.3h-9.7v-4.4h24.6v4.4H-97.3z"/>
	<path class="st1" d="M-69.3,271.2V312h-5.1v-40.8H-69.3z"/>
	<path class="st1" d="M-45.3,271.2c6.8,0,12.1,2,15.9,5.7c4,4.1,6.1,8.9,6.1,14.6c0,5.7-2.1,10.6-6.2,14.8
		c-3.7,3.7-8.9,5.6-15.7,5.6h-8.6v-40.8H-45.3z M-48.8,275.7v31.7h3.5c5.1,0,9-1.4,11.9-4.2c3.2-3.2,4.8-7.1,4.8-11.7
		c0-4.6-1.6-8.5-4.8-11.7c-2.9-2.8-6.9-4.1-11.9-4.1H-48.8z"/>
	<path class="st1" d="M6.5,271.2L21.3,312h-5.3L9.8,295H-1.3L-7.5,312h-5.4l15-40.8H6.5z M8.2,290.6l-3.9-10.8l-3.9,10.8H8.2z"/>
	<path class="st1" d="M38.3,271.2l23.2,32.6v-32.6h5.1V312h-5.7l-22.6-31.7V312h-5.1v-40.8H38.3z"/>
</g>
</svg>
