<?xml version="1.0" encoding="utf-8"?>
<!-- Generator: Adobe Illustrator 19.0.0, SVG Export Plug-In . SVG Version: 6.00 Build 0)  -->
<svg version="1.1" xmlns="http://www.w3.org/2000/svg" xmlns:xlink="http://www.w3.org/1999/xlink" x="0px" y="0px"
	 width="100.8" height="28" viewBox="0 0 100.8 28" style="enable-background:new 0 0 100.8 28;" xml:space="preserve">
<style type="text/css">
	.st0{fill-rule:evenodd;clip-rule:evenodd;fill:#D6B45A;}
</style>
<g id="Logo_icon">
	<path class="st0" d="M8,1.8L2.4,9l8.9,9c0.3,0.3,0.3,0.8,0,1.1c-0.3,0.3-0.8,0.3-1.1,0l-9.9-10l7-8.9h8.2c0.4,0,0.8,0.4,0.8,0.8
		c0,0.4-0.4,0.8-0.8,0.8H8L8,1.8z M17.1,23.9L14,20.7c-0.3-0.3-0.8-0.3-1.1,0c-0.3,0.3-0.3,0.8,0,1.1c1.8,1.9,3.7,3.7,5.5,5.6
		l0.4,0.4v-26h9.1L33.5,9l-7.8,7.9c-0.3,0.3-0.3,0.8,0,1.1c0.3,0.3,0.8,0.3,1.1,0l8.8-8.9l-7-8.9H17.1V23.9z"/>
</g>
<g id="Logo_name">
	<g>
		<path d="M45.7,8.6v12H44v-12h-3.2V7.2h8.1v1.5H45.7z"/>
		<path d="M55.2,7.2v13.5h-1.7V7.2H55.2z"/>
		<path d="M63.3,7.2c2.3,0,4,0.6,5.3,1.9c1.3,1.4,2,3,2,4.8c0,1.9-0.7,3.5-2,4.9c-1.2,1.2-3,1.8-5.2,1.9h-2.9V7.2H63.3z M62.2,8.7
			v10.5h1.1c1.7,0,3-0.5,3.9-1.4c1.1-1.1,1.6-2.3,1.6-3.9c0-1.5-0.5-2.8-1.6-3.9c-1-0.9-2.3-1.4-3.9-1.4H62.2z"/>
		<path d="M80.7,7.2l4.9,13.5h-1.8l-2-5.6h-3.7L76,20.7h-1.8l5-13.5H80.7z M81.2,13.6L79.9,10l-1.3,3.6H81.2z"/>
		<path d="M91.4,7.2l7.7,10.8V7.2h1.7v13.5h-1.9l-7.5-10.5v10.5h-1.7V7.2H91.4z"/>
	</g>
</g>
</svg>
